<svg class="icon-svg-addCart" viewBox="0 0 74.5 73.03">
    <defs>
        <style>
            .icon-svg-addCart-cls-1 {
                fill: #c0c9da;
            }

            .icon-svg-addCart-cls-2 {
                fill: #fff;
            }
        </style>
    </defs>
    <title>addCart</title>
    <g id="Capa_2" data-name="Capa 2">
        <g id="Capa_1-2" data-name="Capa 1">
            <rect class="icon-svg-addCart-cls-1" width="74.5" height="73.03" rx="16.46" />
            <path class="icon-svg-addCart-cls-2"
                d="M47.33,39.61l2-8.85h2.12V27.21H45.36L38.79,15.7l-3.08,1.76,5.57,9.75H26.13l5.57-9.75L28.62,15.7,22.05,27.21H16v3.55h2.12l3.24,14.55a1.77,1.77,0,0,0,1.73,1.39H39V43.16H24.5l-2.76-12.4H45.67l-2,8.85Z" />
            <polygon class="icon-svg-addCart-cls-2"
                points="58.51 48.47 53.19 48.47 53.19 43.16 49.65 43.16 49.65 48.47 44.34 48.47 44.34 52.02 49.65 52.02 49.65 57.33 53.19 57.33 53.19 52.02 58.51 52.02 58.51 48.47" />
        </g>
    </g>
</svg>